<?xml version="1.0" encoding="utf-8"?>
<!-- Generator: Adobe Illustrator 26.0.2, SVG Export Plug-In . SVG Version: 6.00 Build 0)  -->
<svg version="1.1" id="Layer_1" xmlns="http://www.w3.org/2000/svg" xmlns:xlink="http://www.w3.org/1999/xlink" x="0px" y="0px" viewBox="0 0 381.55 373.56" style="enable-background:new 0 0 381.55 373.56;" xml:space="preserve">
	<style type="text/css">
	.st0{fill:none;stroke:#231F20;stroke-linecap:round;stroke-linejoin:round;stroke-miterlimit:10;}
	.st1{fill:#00501E;}
</style>
	<path class="st1" d="M189.23,229.46c-2.94,0-72.72-0.61-126.08-53.98c-1.13-1.13-2.23-2.26-3.31-3.41
	c-11.17-11.8-16.48-25.82-15.35-40.55c0.99-12.99,6.97-25.59,16.85-35.47c9.88-9.88,22.47-15.86,35.47-16.85
	c13.61-1.04,26.62,3.42,37.83,12.92c1.21-14.64,7.26-26.99,17.61-35.88c9.89-8.49,23.03-13.16,36.99-13.16s27.11,4.67,36.99,13.16
	c10.36,8.89,16.4,21.24,17.62,35.88c11.21-9.5,24.22-13.96,37.83-12.92c12.99,0.99,25.59,6.97,35.46,16.85
	c9.88,9.88,15.86,22.47,16.85,35.47c1.12,14.73-4.19,28.75-15.35,40.55c-1.08,1.14-2.19,2.28-3.31,3.41
	C261.95,228.85,192.18,229.46,189.23,229.46z M100.65,90.15c-12.1,0-23.46,5.62-31.54,13.7c-14.53,14.53-21.12,39.71-1.28,60.68
	c1.01,1.07,2.04,2.13,3.1,3.19c50.18,50.18,117.63,50.76,118.31,50.76c0.67,0,68.25-0.71,118.31-50.76c1.06-1.06,2.09-2.12,3.1-3.19
	c19.84-20.96,13.24-46.15-1.29-60.67c-14.53-14.53-39.71-21.12-60.67-1.29c-1.07,1.01-2.13,2.04-3.19,3.1
	c-0.82,0.82-1.6,1.65-2.38,2.48l-10.48,11.05l0.41-15.18c0.03-1.15,0.07-2.31,0.07-3.48c0-1.49-0.02-2.97-0.06-4.45
	c-0.8-28.85-23.27-42-43.81-42s-43.02,13.14-43.81,42c-0.04,1.47-0.06,2.95-0.06,4.45c0,1.14,0.03,2.27,0.06,3.39l0.4,15.27
	l-10.44-11.02c-0.79-0.84-1.59-1.68-2.41-2.51c-1.06-1.06-2.12-2.09-3.19-3.1C120.47,93.74,110.32,90.15,100.65,90.15z" />
	<path class="st1" d="M332.15,310.44c-19.67,9.04-42.14,11.4-63.4,6.62c-20.62-4.64-38.7-15.38-52.59-31.15
	c1.36,0.94,2.76,1.85,4.2,2.72c11.88,7.16,25.08,10.76,38.28,10.76c11.73,0,23.47-2.84,34.29-8.56c0.77-0.4,1.53-0.82,2.29-1.25
	l-5.44-9.56c-0.66,0.38-1.32,0.74-1.99,1.09c-19.55,10.33-42.63,9.63-61.75-1.89c-19.57-11.79-31.26-32.42-31.26-55.18v-4.24h-0.1
	h-10.9h-0.1v4.24c0,22.76-11.69,43.39-31.26,55.18c-19.12,11.52-42.2,12.23-61.75,1.89c-0.67-0.35-1.33-0.71-1.99-1.09l-5.44,9.56
	c0.76,0.43,1.52,0.85,2.29,1.25c10.82,5.72,22.55,8.56,34.29,8.56c13.2,0,26.39-3.6,38.28-10.76c1.44-0.86,2.84-1.77,4.2-2.72
	c-13.89,15.77-31.97,26.51-52.59,31.15c-21.26,4.79-43.73,2.43-63.4-6.62l-5.53,9.58c14.7,6.92,30.84,10.46,47.05,10.46
	c8.14,0,16.29-0.89,24.29-2.69c24.66-5.55,46.07-18.95,61.89-38.73c3.7-4.62,6.92-9.58,9.66-14.77v56.19h11v-56.38
	c2.77,5.26,6.02,10.29,9.76,14.96c15.83,19.78,37.23,33.17,61.89,38.73c8,1.8,16.15,2.69,24.29,2.69c16.21,0,32.35-3.54,47.05-10.46
	L332.15,310.44z" />
	<path class="st1" d="M182.08,171.2h-8c0-11.91-11.59-21.61-25.84-21.61c-14.25,0-25.84,9.69-25.84,21.61h-8
	c0-16.32,15.18-29.61,33.84-29.61C166.9,141.59,182.08,154.87,182.08,171.2z" />
	<circle class="st1" cx="157.44" cy="159.86" r="11.51" />
	<path class="st1" d="M264.14,171.2h-8c0-11.91-11.59-21.61-25.84-21.61c-14.25,0-25.84,9.69-25.84,21.61h-8
	c0-16.32,15.18-29.61,33.84-29.61C248.96,141.59,264.14,154.87,264.14,171.2z" />
	<circle class="st1" cx="239.51" cy="159.86" r="11.51" />
	<path class="st1" d="M189.1,200.61c-9.43,0-18.17-4.85-22.25-12.34l7.03-3.83c2.71,4.96,8.68,8.17,15.23,8.17
	c6.55,0,12.53-3.21,15.23-8.17l7.03,3.83C207.27,195.76,198.53,200.61,189.1,200.61z" />
</svg>