<svg width="372" height="340" fill="none" xmlns="http://www.w3.org/2000/svg"><g clip-path="url(#clip0_876_1588)"><path d="M162.12 330.5v-17.73h2.13v15.81h9v1.92h-11.13zM175.25 330.5v-17.73h10.92v1.92h-8.8v5.93h8.09v1.93h-8.09v6h8.92v1.92l-11.04.03zM188.45 330.5v-17.73h4.13l6.19 16.39h.33v-16.39h2.1v17.73h-4.13l-6.17-16.42h-.35v16.42h-2.1zM210.9 330.86a8.22 8.22 0 01-3.44-.69 5.305 5.305 0 01-2.4-2.06 6.384 6.384 0 01-.87-3.46v-.53h2.1v.53a4.008 4.008 0 001.29 3.28 5.004 5.004 0 003.32 1.08 4.764 4.764 0 003.17-.94 3.01 3.01 0 001.09-2.36 2.35 2.35 0 00-.5-1.57 3.593 3.593 0 00-1.38-.95 13.391 13.391 0 00-2.07-.64l-1.32-.33a14.9 14.9 0 01-2.74-1 4.892 4.892 0 01-1.86-1.53 4.153 4.153 0 01-.67-2.45 4.43 4.43 0 01.75-2.58 4.625 4.625 0 012.1-1.67 7.828 7.828 0 013.13-.59 8.113 8.113 0 013.23.62 4.947 4.947 0 013.08 4.86v1.06h-2.11v-1.06a3.577 3.577 0 00-.54-2.08 3.202 3.202 0 00-1.5-1.17 5.8 5.8 0 00-2.16-.38 4.68 4.68 0 00-2.81.77 2.574 2.574 0 00-1.07 2.2 2.37 2.37 0 00.46 1.52 3.25 3.25 0 001.29.95c.646.272 1.315.486 2 .64l1.32.33a12.98 12.98 0 012.77.9 5.112 5.112 0 012 1.55c.516.743.773 1.636.73 2.54a4.822 4.822 0 01-.78 2.74 5.197 5.197 0 01-2.22 1.81 8.14 8.14 0 01-3.39.66z" fill="#00501E"/><path d="M216.72 305.67c-15.52 7.1-27.21-8.07-27.21-17.25M189.42 287.04c.01 2.093.347 4.171 1 6.16a11.654 11.654 0 006.855 7.418 11.653 11.653 0 0010.075-.718v0M162.21 305.67c15.52 7.1 27.21-8.07 27.21-17.25" stroke="#00501E" stroke-width="2" stroke-miterlimit="10"/><path d="M189.51 287.04a20.083 20.083 0 01-1 6.16 11.658 11.658 0 01-6.849 7.418 11.647 11.647 0 01-10.071-.718v0M189.42 308.48v-21.32M278.1 187.25a10.394 10.394 0 005.25 5.2 15.617 15.617 0 007.15 1.39 22.547 22.547 0 0017.21-8.73M287.03 193.6c6.66.94 13.21 3.63 16.25 9.48M278.1 187.25a10.22 10.22 0 01-5.14 5.2 15.692 15.692 0 01-7.16 1.39 22.506 22.506 0 01-17.2-8.73M269.27 193.6c-6.66.94-13.21 3.63-16.25 9.48M269 150.88a3.624 3.624 0 013.58-3.083 3.618 3.618 0 013.58 3.083M280.15 150.84a3.624 3.624 0 013.58-3.083 3.62 3.62 0 013.58 3.083M196.76 199.05c0 3.35-3.16 6.07-7.07 6.07s-7.07-2.72-7.07-6.07M161.81 15.05c-7.91-3.21-17.67 1.4-24.61 10.74-3.4-9.4-10.05-15.79-17.7-15.79-8.27 0-15.37 7.47-18.46 18.14-7-10.86-17.68-16.56-26.24-13.09-10.29 4.18-13.56 20.06-7.31 35.46 1.67 4.11 11.13 27.85 50.75 27.85 38.52 0 49-23.24 50.88-27.85 6.26-15.4 2.98-31.28-7.31-35.46z" stroke="#00501E" stroke-width="2" stroke-miterlimit="10"/><path d="M300.48 147.53a9.802 9.802 0 00-12.58-9.43 9.834 9.834 0 00-16.327-6.24 9.83 9.83 0 00-3.213 6.24 9.825 9.825 0 00-12.285 6.485 9.82 9.82 0 006.485 12.285c-1.15 1.61-1.84 6-1.84 8.17 0 19.87 14.36 21.18 17.42 21.18 3.23 0 17.42-.78 17.42-21.18 0-2.14-.69-6.57-1.85-8.18a9.83 9.83 0 006.77-9.33v0z" stroke="#00501E" stroke-width="2" stroke-miterlimit="10"/><path d="M221.82 145.14c4.48-21.73 19.59-36.85 41.32-41.32l-41.32 41.32v0zM221.82 145.14c-4.47-21.73-19.59-36.85-41.32-41.32l41.32 41.32zM221.82 124.45c4.48-21.73 19.59-36.85 41.32-41.32l-41.32 41.32zM221.82 124.45c-4.47-21.73-19.59-36.85-41.32-41.32l41.32 41.32zM221.82 103.82c4.48-21.73 19.59-36.85 41.32-41.37l-41.32 41.33v.04zM221.82 103.82c-4.47-21.73-19.59-36.85-41.32-41.37l41.32 41.33v.04z" stroke="#00501E" stroke-width="2" stroke-linecap="square" stroke-linejoin="round"/><path d="M132.714 218.761a25.559 25.559 0 0120.14 30.017v0a25.56 25.56 0 01-20.14-30.017v0zM149.227 120.735a25.558 25.558 0 01-30.017 20.14v0a25.56 25.56 0 0130.017-20.14v0zM221.842 233.218a25.558 25.558 0 0136.147 0 25.561 25.561 0 01-36.147 0v0zM233.46 169.25a43.659 43.659 0 00-31 12.83 43.64 43.64 0 00-12.81-31.2v0a43.596 43.596 0 00-12.75 31.2 43.666 43.666 0 00-31-12.83v0a43.781 43.781 0 0043.78 43.78 43.778 43.778 0 0043.77-43.78h.01zM208.5 230.62h-7.22a11.57 11.57 0 01-11.57-11.57v-5h7.25a11.567 11.567 0 0111.57 11.57v5h-.03zM182.42 214.08h7.25v5a11.567 11.567 0 01-11.57 11.57h-7.25v-5a11.57 11.57 0 0111.57-11.57v0zM69.08 207.94h4.24a6.774 6.774 0 016.77 6.77v2.9h-4.24a6.772 6.772 0 01-6.77-6.77v-2.9zM84.29 217.61h-4.2v-2.9a6.774 6.774 0 011.983-4.787 6.76 6.76 0 014.787-1.983h4.24v2.9a6.768 6.768 0 01-6.81 6.77v0zM94.01 130.09a16.087 16.087 0 00-5.869-22 16.085 16.085 0 00-16.102 0 16.088 16.088 0 00-5.869 22 16.002 16.002 0 00.21 16.44 16.002 16.002 0 00-.21 16.43 16 16 0 000 16.09 16.093 16.093 0 005.869 22.001 16.085 16.085 0 0016.102 0 16.088 16.088 0 005.869-22.001 15.998 15.998 0 000-16.09 15.996 15.996 0 00-.21-16.43 15.995 15.995 0 00.21-16.44v0z" stroke="#00501E" stroke-width="2" stroke-miterlimit="10"/><path d="M118.24 78.36l-1.5 171.29c-.09 9.61 8.5 17.44 19.12 17.44h33.52a19.881 19.881 0 0119.88 19.88l.42-71.48M221.82 170.83v-25.69M189.26 286.97l.43-37.29h15.64a16.487 16.487 0 0015.237-10.187 16.476 16.476 0 001.253-6.313v-34.13" stroke="#00501E" stroke-width="2" stroke-miterlimit="10"/><path d="M196.76 195.22a3.07 3.07 0 10.001-6.139 3.07 3.07 0 00-.001 6.139zM182.62 195.22a3.07 3.07 0 100-6.14 3.07 3.07 0 000 6.14z" fill="#00501E"/><path d="M73.65 187.08h5.36M81.24 187.08h5.37M216.14 72.21a3.78 3.78 0 100-7.56 3.78 3.78 0 000 7.56zM227.69 72.21a3.78 3.78 0 100-7.56 3.78 3.78 0 000 7.56zM221.82 62.49a3.78 3.78 0 100-7.56 3.78 3.78 0 000 7.56zM221.82 81.84a3.78 3.78 0 100-7.56 3.78 3.78 0 000 7.56zM167.25 86.45c-28.14-12.84-49.35 10.53-49.35 31.31M117.9 117.76c0-18 21.81-30.14 36.7-22.19M68.59 86.15c28.14-12.86 49.31 10.5 49.31 31.3M117.9 117.45c0-18-21.81-30.14-36.71-22.19M107.72 48.37c0-3.92 3.71-7.09 8.27-7.09s8.27 3.17 8.27 7.09M130.27 48.28c0-3.92 3.7-7.09 8.27-7.09 4.57 0 8.27 3.17 8.27 7.09" stroke="#00501E" stroke-width="2" stroke-miterlimit="10"/><path d="M118.54 48.42a3.19 3.19 0 10-.001-6.381 3.19 3.19 0 00.001 6.381zM140.94 48.42a3.19 3.19 0 100-6.38 3.19 3.19 0 000 6.38z" fill="#00501E"/><path d="M85.38 190.52c0 2.51-2.37 4.54-5.29 4.54s-5.29-2-5.29-4.54M80.09 203.18v27.93a18.492 18.492 0 0018.48 18.49h74.44a16.483 16.483 0 0111.728 4.897 16.501 16.501 0 014.762 11.783l-.24 20.69.15-9a18.13 18.13 0 0118.13-17.85h49a21.65 21.65 0 0021.65-21.65v-52.25M76.33 287.16H305.6" stroke="#00501E" stroke-width="2" stroke-miterlimit="10"/></g><defs><clipPath id="clip0_876_1588"><path fill="#fff" transform="translate(63 9)" d="M0 0h245.5v321.85H0z"/></clipPath></defs></svg>